<svg xmlns="http://www.w3.org/2000/svg" width="169.635" height="169.633" viewBox="0 0 169.635 169.633">
  <path id="Rectangle_8" data-name="Rectangle 8" d="M31.213,0H138.422a31.213,31.213,0,0,1,31.213,31.213V138.422a31.212,31.212,0,0,1-31.212,31.212H31.212A31.212,31.212,0,0,1,0,138.422V31.213A31.213,31.213,0,0,1,31.213,0Z" fill="#fff"/>
  <path id="Path_107" data-name="Path 107" d="M422.141,229.769q.482-1.08,1.039-2.117A32.066,32.066,0,0,1,436,214.736a31.654,31.654,0,0,1,5.851-2.472A32.146,32.146,0,0,1,454.467,211a31.566,31.566,0,0,1,6.227,1.258A31.9,31.9,0,0,1,481.745,233.3q.218.707.4,1.43a2.692,2.692,0,0,0,2.512,2.045,25.91,25.91,0,0,1-1.236,51.79h-24c-1.5,0-7.672.079-11.027,0,.853-4.232,20.281-5.226,21.784-5.226l13.238-.233a20.451,20.451,0,1,0,0-40.9c-11.486,0-19.41,10.488-27.529,21.234-9.373,12.405-18.984,25.126-35.225,25.126a28.6,28.6,0,0,1-.936-57.181,2.675,2.675,0,0,0,2.4-1.619Zm54.405,5.143,0-.01a26.253,26.253,0,0,0-4.9-9.052,26.621,26.621,0,0,0-12.549-8.39,26.247,26.247,0,0,0-5.159-1.046,26.691,26.691,0,0,0-10.482,1.051,26.284,26.284,0,0,0-9.052,4.9,27.09,27.09,0,0,0-5.707,6.615c-.208.341-2.19,3.238-.59,5.672,1.363,2.08,3.97,3.3,5.526,3.923,2.944,1.178,12.213,1.272,11.642,1.843-.523.523-4.911,1.054-9.566.48-3.5-.43-13.042-1.754-15.378-.48s-14.485,19.879-7.089,25.737c7.852,6.222,26.365-3.7,32.775-9.163,8.779-8.259,19.413-15.2,28.875-18.72A2.725,2.725,0,0,0,476.546,234.912Z" transform="translate(-365.761 -164.907)" fill="#262934" fill-rule="evenodd"/>
  <path id="iconmonstr-gear-1" d="M33.385,18.94v-4.5c-2.3-.817-3.747-1.046-4.478-2.809h0c-.733-1.768.139-2.968,1.178-5.157L26.907,3.3c-2.171,1.032-3.384,1.913-5.157,1.178h0c-1.765-.732-2-2.192-2.809-4.478h-4.5c-.81,2.274-1.042,3.745-2.809,4.478h0C9.867,5.212,8.669,4.341,6.478,3.3L3.3,6.478c1.036,2.181,1.913,3.386,1.178,5.157s-2.2,2-4.478,2.81v4.5c2.27.807,3.745,1.042,4.478,2.809.737,1.783-.159,3.013-1.178,5.157l3.179,3.18c2.173-1.034,3.386-1.913,5.157-1.178h0c1.767.732,2,2.2,2.809,4.478h4.5c.81-2.276,1.043-3.742,2.82-4.482h0c1.755-.729,2.949.14,5.144,1.184l3.179-3.18c-1.035-2.174-1.913-3.384-1.18-5.155s2.209-2,4.481-2.811ZM16.692,22.257a5.564,5.564,0,1,1,5.564-5.564A5.564,5.564,0,0,1,16.692,22.257Z" transform="translate(99.243 81.376)" fill="#262934" opacity="0.753"/>
</svg>
